# xmcd
#
# Track frame offsets:
#	150
#	18451
#	38878
#	61792
#	82108
#	95902
#	112661
#	128630
#	140497
#	161271
#	181987
#	197356
#	217793
#
# Disc length: 3171 seconds
#
# Revision: 12
# Processed by: cddbd v1.5.2PL0 Copyright (c) Steve Scherf et al.
# Submitted via: audiograbber 1.83.01
#
DISCID=a20c610d
DTITLE=Bryan Adams - MTV Unplugged
DYEAR=1997
DGENRE=Rock
TTITLE0=Summer Of '69
TTITLE1=Back To You
TTITLE2=Cuts Like A Knife
TTITLE3=I'm Ready
TTITLE4=Fits Ya Good
TTITLE5=When You Love Someone
TTITLE6=Till I Die
TTITLE7=I Think About You
TTITLE8=If Ya Wanna Be Bad - Ya Gotta Be Good - Let's Make A Night To Remember
TTITLE9=The Only Thing That Looks Good On Me Is You
TTITLE10=A Little Love
TTITLE11=Heaven
TTITLE12=I'll Always Be Right There
EXTD=YEAR: 1997
EXTT0=
EXTT1=
EXTT2=
EXTT3=
EXTT4=
EXTT5=
EXTT6=
EXTT7=
EXTT8=
EXTT9=
EXTT10=
EXTT11=
EXTT12=
PLAYORDER=
